<?xml version="1.0" encoding="UTF-8"?> <svg xmlns="http://www.w3.org/2000/svg" width="1440" height="512" viewBox="0 0 1440 512" fill="none"> <rect width="1440" height="512" fill="#101417"></rect> <path fill-rule="evenodd" clip-rule="evenodd" d="M303 342.251V346.944C303.17 346.944 303.283 346.944 303.453 347H314.606C314.653 346.995 314.7 346.991 314.748 346.986C315.275 346.935 315.842 346.879 316.361 346.777C319.645 346.05 321.57 343.983 322.475 340.911C323.155 338.564 323.155 336.162 322.589 333.816C322.249 332.419 321.626 331.19 320.72 330.128C319.701 328.899 318.399 328.061 316.927 327.503C316.191 327.223 315.399 327 314.606 327H303V331.525H305.774V342.251H303ZM312.058 342.264C311.851 342.258 311.643 342.251 311.435 342.251V331.525C311.66 331.525 311.889 331.516 312.12 331.507C312.705 331.484 313.302 331.461 313.87 331.581C314.379 331.637 314.832 332.084 315.172 332.475C315.738 333.145 316.191 333.983 316.361 334.877C316.701 336.385 316.87 337.894 316.417 339.402C316.191 340.073 315.795 340.687 315.342 341.246C314.832 341.916 314.096 342.196 313.304 342.251C312.888 342.289 312.473 342.276 312.058 342.264Z" fill="white" fill-opacity="0.24"></path> <path d="M368 469.5C365.49 469.5 363.32 468.08 362.24 466H368V464H361.58C361.53 463.67 361.5 463.34 361.5 463C361.5 462.66 361.53 462.33 361.58 462H368V460H362.24C363.32 457.92 365.5 456.5 368 456.5C369.61 456.5 371.09 457.09 372.23 458.07L374 456.3C372.41 454.87 370.3 454 368 454C364.08 454 360.76 456.51 359.52 460H356V462H359.06C359.02 462.33 359 462.66 359 463C359 463.34 359.02 463.67 359.06 464H356V466H359.52C360.76 469.49 364.08 472 368 472C370.31 472 372.41 471.13 374 469.7L372.22 467.93C371.09 468.91 369.62 469.5 368 469.5Z" fill="white" fill-opacity="0.24"></path> <path d="M363.372 96.5741L363.396 96.589C363.244 96.6413 363.276 96.6246 363.372 96.5741Z" fill="white" fill-opacity="0.24"></path> <path fill-rule="evenodd" clip-rule="evenodd" d="M363.608 96.7183C363.662 96.6305 363.716 96.5433 363.77 96.4568C363.591 96.5205 363.471 96.5632 363.396 96.589C363.467 96.6325 363.538 96.6756 363.608 96.7183ZM363.608 96.7183C363.319 97.1888 363.025 97.6757 362.731 98.1625C362.383 98.7402 362.034 99.318 361.693 99.8683C361.518 100.053 361.598 100.196 361.821 100.264C361.984 100.36 362.151 100.457 362.322 100.556C363.019 100.961 363.771 101.399 364.503 101.906C365.412 102.538 365.687 103.69 365.211 104.497C362.232 109.774 359.172 114.908 356.113 120.043C355.78 120.774 354.984 121.008 354.155 120.52C353.405 120.174 352.575 119.685 351.857 119.231C351.522 119.129 351.41 119.096 351.204 119.39C350.617 120.163 349.887 121.011 349.156 121.859C348.982 122.044 348.843 122.21 348.704 122.376C348.565 122.542 348.426 122.708 348.251 122.893C350.741 124.359 353.119 125.791 355.496 127.223C355.459 127.351 355.395 127.43 355.342 127.495C355.304 127.541 355.272 127.581 355.259 127.626C354.196 129.206 353.213 130.928 352.231 132.651C352.056 132.836 352.024 132.945 352.328 133.156C353.381 133.712 354.434 134.268 355.455 134.933C355.722 135.119 355.779 135.056 355.908 134.912C355.925 134.893 355.944 134.872 355.965 134.85C356.218 134.392 356.5 133.942 356.781 133.493C357.063 133.043 357.344 132.594 357.598 132.136C357.851 131.678 358.133 131.228 358.414 130.779C358.695 130.329 358.977 129.879 359.23 129.422C360.172 129.944 361.001 130.432 361.831 130.921C361.969 131.048 361.934 131.123 361.879 131.237C361.858 131.281 361.835 131.331 361.817 131.392C360.754 132.972 359.772 134.694 358.789 136.417C358.614 136.602 358.583 136.711 358.886 136.922C359.357 137.183 359.847 137.48 360.338 137.777C360.829 138.074 361.32 138.371 361.79 138.632C362.264 139.002 362.313 138.918 362.525 138.557L362.555 138.506C363.03 137.7 363.514 136.866 363.997 136.032C364.48 135.198 364.964 134.364 365.439 133.557C365.646 133.263 365.9 133.221 366.204 133.432C368.341 134.435 370.51 135.328 372.949 135.71C374.798 136.031 376.581 135.739 378.219 134.69C379.57 133.791 380.507 132.649 381.395 131.254C382.077 130.153 382.567 128.876 382.69 127.606C382.686 125.941 382.14 124.469 381.084 123.081C380.908 122.849 380.724 122.645 380.541 122.441C380.357 122.237 380.173 122.033 379.997 121.801C380.128 121.841 380.231 121.831 380.317 121.823C380.377 121.818 380.429 121.813 380.475 121.827C381.463 121.769 382.482 121.602 383.341 121.149C384.486 120.545 385.248 119.587 385.929 118.487C386.88 116.873 387.274 115.091 386.742 113.148C386.276 111.819 385.524 110.641 384.597 109.648L381.387 106.895C381.084 106.684 381.004 106.541 381.21 106.247C381.591 105.768 381.86 105.256 382.13 104.743C382.843 103.533 383.556 102.323 384.301 101.004C384.245 100.987 384.225 100.951 384.205 100.915C384.185 100.879 384.165 100.844 384.109 100.827C383.621 100.525 383.148 100.251 382.686 99.9825C382.075 99.6281 381.483 99.2847 380.902 98.906C380.71 98.7292 380.567 98.8047 380.504 99.0233L379.791 100.233C378.934 101.519 378.221 102.729 377.476 104.048C377.428 104.073 377.377 104.111 377.326 104.148C377.223 104.223 377.121 104.297 377.047 104.275C376.632 104.03 376.189 103.778 375.746 103.525C375.303 103.272 374.86 103.019 374.446 102.775C374.62 102.59 374.652 102.481 374.683 102.372C375.159 101.565 375.642 100.731 376.126 99.8971C376.609 99.0631 377.093 98.229 377.568 97.4224C377.743 97.2376 377.774 97.1283 377.471 96.9177C376.418 96.3616 375.477 95.8392 374.455 95.1738C374.152 94.9633 374.009 95.0388 373.802 95.3328C373.311 96.1942 372.828 97.0282 372.344 97.8622C371.861 98.6962 371.377 99.5302 370.886 100.392C370.68 100.686 370.537 100.761 370.233 100.551C369.667 100.201 369.092 99.8787 368.518 99.5564C367.944 99.2342 367.369 98.9119 366.803 98.5623C366.236 98.2127 365.662 97.8905 365.087 97.5682C364.593 97.2907 364.098 97.0132 363.608 96.7183ZM375.156 117.129C374.678 117.103 374.089 117.044 373.866 116.976C372.57 116.585 371.501 116.074 370.396 115.546C369.978 115.346 369.555 115.144 369.112 114.945C368.905 114.822 368.725 114.709 368.546 114.595C368.366 114.481 368.187 114.368 367.979 114.245C367.788 114.069 367.708 113.926 367.882 113.741C369.214 111.649 370.403 109.632 371.624 107.506C371.83 107.212 371.973 107.136 372.276 107.347C372.584 107.534 372.888 107.716 373.189 107.896C374.403 108.621 375.565 109.315 376.665 110.219C377.544 110.96 378.359 111.919 378.633 113.072C379.213 115.267 377.403 117.333 375.156 117.129ZM361.465 125.464C361.465 125.464 361.385 125.321 361.273 125.287C361.669 124.64 362.038 124.007 362.401 123.384C362.881 122.56 363.351 121.754 363.857 120.959C364.127 120.447 364.416 119.97 364.705 119.493C364.995 119.016 365.284 118.539 365.553 118.027C365.571 118.001 365.588 117.976 365.604 117.953C365.767 117.716 365.818 117.642 366.094 117.834L366.28 117.932C368.33 119.014 370.468 120.142 372.112 121.793C372.847 122.609 373.582 123.425 373.888 124.468C374.611 126.588 372.929 129.05 370.619 129.064C369.266 129.13 368.038 128.759 366.73 128.244C365.156 127.668 363.673 126.781 362.251 125.931C361.987 125.773 361.725 125.617 361.465 125.464Z" fill="white" fill-opacity="0.24"></path> <path d="M202.15 81.5701L202.22 81.4301C202.22 81.3601 202.22 81.2901 202.36 81.3401C202.371 81.2773 202.371 81.213 202.36 81.1501C202.394 81.0598 202.394 80.9604 202.36 80.8701C202.218 80.5242 202.194 80.1413 202.29 79.7801C202.301 79.7341 202.301 79.6861 202.29 79.6401L202.36 79.5701C202.388 79.5958 202.412 79.6263 202.43 79.6601C202.441 79.7061 202.441 79.7541 202.43 79.8001V79.8701C202.43 79.9401 202.55 79.8001 202.6 79.7501C202.662 79.7025 202.729 79.6622 202.8 79.6301C202.813 79.4473 202.79 79.2636 202.73 79.0901C202.619 78.7137 202.643 78.3101 202.8 77.9501C202.8 78.0201 202.89 78.0701 202.89 78.1401C202.907 78.4001 203.017 78.6451 203.2 78.8301C203.403 79.0631 203.556 79.3351 203.65 79.6301C203.65 79.6301 203.65 79.7201 203.72 79.7201C204.008 79.8031 204.27 79.9571 204.48 80.1701C204.722 80.3881 204.952 80.6181 205.17 80.8601C205.208 80.9013 205.238 80.9487 205.26 81.0001H205.33C205.342 80.7803 205.342 80.56 205.33 80.3401C205.33 80.1501 205.42 79.9601 205.61 79.9901H205.7C205.704 79.9057 205.736 79.825 205.79 79.76C205.844 79.6951 205.918 79.6495 206 79.6301C206.035 79.6909 206.054 79.7599 206.054 79.8301C206.054 79.9003 206.035 79.9693 206 80.0301C206.14 80.2001 206.17 80.2901 206 80.4801C205.83 80.6701 205.91 80.6901 206 80.8801C206.019 80.77 206.06 80.6647 206.12 80.5701C206.17 80.4701 206.19 80.3101 206.31 80.2601C206.349 80.2464 206.391 80.2464 206.43 80.2601C206.546 80.283 206.664 80.283 206.78 80.2601C206.853 80.2541 206.926 80.2712 206.989 80.3088C207.052 80.3465 207.101 80.4029 207.13 80.4701L206.8 80.6301C206.87 80.7701 206.8 80.8201 206.66 80.9101C206.59 80.9741 206.527 81.0444 206.47 81.1201C206.598 81.0974 206.725 81.0673 206.85 81.0301C206.935 81.0085 207.025 81.0178 207.104 81.0563C207.182 81.0947 207.245 81.1599 207.28 81.2401C207.307 81.2967 207.348 81.345 207.4 81.3801C207.497 81.4642 207.558 81.5824 207.57 81.7101C207.578 81.7396 207.578 81.7706 207.57 81.8001L207.38 81.6601C207.356 81.6369 207.324 81.6239 207.29 81.6239C207.256 81.6239 207.224 81.6369 207.2 81.6601C207.166 81.6925 207.122 81.7106 207.075 81.7106C207.028 81.7106 206.984 81.6925 206.95 81.6601C206.882 81.6196 206.804 81.5983 206.725 81.5983C206.646 81.5983 206.568 81.6196 206.5 81.6601C206.394 81.7299 206.284 81.7934 206.17 81.8501C206.301 81.8678 206.427 81.9158 206.536 81.9905C206.645 82.0652 206.736 82.1643 206.8 82.2801C206.87 82.4201 206.97 82.5601 207.04 82.7101C207.067 82.7699 207.07 82.838 207.048 82.8997C207.025 82.9615 206.979 83.0119 206.92 83.0401H206.87V82.9901C206.87 82.8701 206.8 82.8501 206.68 82.8701C206.647 82.881 206.613 82.8852 206.578 82.8825C206.544 82.8798 206.51 82.8702 206.479 82.8544C206.449 82.8386 206.421 82.8168 206.399 82.7903C206.377 82.7638 206.36 82.7332 206.35 82.7001C206.234 82.4672 206.039 82.2829 205.8 82.1801L205.59 82.0901C205.574 82.1811 205.544 82.2689 205.5 82.3501C205.467 82.4024 205.427 82.4496 205.38 82.4901C205.24 82.6101 205.24 82.6301 205.38 82.8001C205.52 82.9701 205.45 82.8901 205.5 82.9701C205.425 82.9745 205.35 82.9614 205.28 82.9319C205.211 82.9024 205.149 82.8573 205.1 82.8001C204.976 82.6603 204.875 82.5017 204.8 82.3301C204.771 82.2501 204.769 82.1628 204.794 82.0816C204.82 82.0003 204.871 81.9296 204.94 81.8801C205.01 81.8106 205.068 81.7294 205.11 81.6401L204.4 81.4501C204.411 81.5598 204.411 81.6704 204.4 81.7801C204.424 82.1831 204.424 82.5871 204.4 82.9901C204.376 83.589 204.282 84.183 204.12 84.7601C204.003 85.2045 203.835 85.634 203.62 86.0401C203.44 86.4061 203.236 86.7602 203.01 87.1001C202.817 87.3825 202.603 87.6499 202.37 87.9001C202.134 88.177 201.873 88.4314 201.59 88.6601C201.28 88.9201 200.95 89.1301 200.59 89.3501C200.105 89.6578 199.58 89.8967 199.03 90.0601C198.659 90.169 198.281 90.2558 197.9 90.3201C197.688 90.3617 197.475 90.3918 197.26 90.4101C197.194 90.431 197.135 90.4673 197.086 90.516C197.037 90.5647 197.001 90.6244 196.98 90.6901C196.951 90.8486 196.889 90.9994 196.8 91.1335C196.711 91.2676 196.595 91.3821 196.46 91.4701C196.34 91.5601 196.2 91.6401 196.06 91.7301L196.13 91.5201C196.142 91.4745 196.142 91.4264 196.13 91.3808C196.117 91.3352 196.093 91.2936 196.06 91.2601C195.99 91.1901 195.89 91.2601 195.8 91.2601C195.71 91.2601 195.63 91.3801 195.61 91.5201C195.591 91.6484 195.539 91.7698 195.461 91.8729C195.382 91.9761 195.279 92.0577 195.16 92.1101H195.04C195.071 92.0258 195.095 91.9388 195.11 91.8501C195.11 91.7801 195.04 91.7101 194.99 91.6401C194.94 91.5701 194.9 91.6401 194.85 91.6401L194.42 91.8501L194.28 91.9201L194.66 92.0901C194.866 92.1886 195.032 92.3545 195.13 92.5601C195.171 92.6152 195.193 92.6817 195.193 92.7501C195.193 92.8185 195.171 92.8851 195.13 92.9401C195.118 92.958 195.112 92.9788 195.112 93.0001C195.112 93.0214 195.118 93.0423 195.13 93.0601C195.163 93.1786 195.171 93.3023 195.156 93.4241C195.141 93.546 195.101 93.6636 195.04 93.7701C195.04 93.8401 194.92 93.9101 194.87 93.9801L194.8 93.5001C194.8 93.4763 194.791 93.4534 194.774 93.4365C194.757 93.4196 194.734 93.4101 194.71 93.4101C194.569 93.4163 194.429 93.3819 194.307 93.311C194.184 93.2402 194.085 93.1357 194.02 93.0101L193.95 92.9201C193.826 93.0974 193.641 93.2221 193.43 93.2701C193.287 93.3349 193.16 93.4302 193.058 93.5495C192.956 93.6687 192.882 93.8089 192.84 93.9601C192.806 94.1336 192.749 94.3017 192.67 94.4601C192.627 94.569 192.544 94.6571 192.438 94.7056C192.331 94.7541 192.21 94.7594 192.1 94.7201V95.1001C192.046 95.0862 191.995 95.0616 191.95 95.0278C191.906 94.994 191.869 94.9516 191.841 94.9032C191.813 94.8548 191.795 94.8013 191.788 94.7458C191.781 94.6903 191.785 94.634 191.8 94.5801C191.812 94.5241 191.812 94.4661 191.8 94.4101C191.73 94.2743 191.713 94.1176 191.752 93.97C191.791 93.8224 191.883 93.6943 192.01 93.6101C192.206 93.4674 192.375 93.2914 192.51 93.0901C192.517 93.0673 192.517 93.0429 192.51 93.0201L191.8 92.9301C191.713 92.9062 191.622 92.9001 191.533 92.9121C191.444 92.9241 191.358 92.9541 191.28 93.0001L191.14 93.1801C190.93 93.4201 190.83 93.4401 190.55 93.3001C190.44 93.4941 190.397 93.7194 190.43 93.9401C190.324 93.8369 190.251 93.7047 190.22 93.5601C190.208 93.4806 190.208 93.3997 190.22 93.3201V93.1801C190.197 93.112 190.197 93.0383 190.22 92.9701C190.304 92.7776 190.457 92.6239 190.65 92.5401C190.862 92.4009 191.107 92.3183 191.36 92.3001C191.55 92.2881 191.74 92.2881 191.93 92.3001H192.07C192.028 92.1964 191.964 92.1027 191.883 92.0252C191.802 91.9477 191.706 91.888 191.6 91.8501L191.06 91.6401C191 91.6488 190.94 91.6337 190.891 91.5982C190.843 91.5627 190.81 91.5095 190.8 91.4501C190.8 91.4263 190.791 91.4034 190.774 91.3865C190.757 91.3696 190.734 91.3601 190.71 91.3601C190.543 91.3596 190.38 91.4083 190.24 91.5001C190.31 91.2901 190.41 91.0701 190.64 91.0301C190.743 91.0181 190.847 91.0181 190.95 91.0301H191.04C191.18 90.8201 191.39 90.8601 191.58 90.9601C191.857 91.0921 192.087 91.3041 192.24 91.5701C192.275 91.6391 192.324 91.6999 192.385 91.7482C192.445 91.7965 192.515 91.8312 192.59 91.8501C192.603 91.6673 192.58 91.4836 192.52 91.3101C192.516 91.2296 192.487 91.1524 192.437 91.0895C192.387 91.0265 192.318 90.9813 192.24 90.9601C192 90.8901 191.93 90.7201 192.05 90.4601C191.971 90.3899 191.875 90.3418 191.771 90.3208C191.668 90.2997 191.56 90.3064 191.46 90.3401C191.53 90.1501 191.81 90.0801 192 90.1001C192.172 90.2028 192.37 90.2515 192.57 90.2401C192.637 90.2527 192.7 90.281 192.754 90.3227C192.808 90.3645 192.851 90.4184 192.88 90.4801L193.02 90.7601C193.14 90.9701 193.23 91.2101 193.33 91.4201C193.47 91.0201 193.64 90.5901 193.8 90.1401L193.56 90.0501L192.87 89.7701C192.344 89.5424 191.844 89.2574 191.38 88.9201C191.299 88.8762 191.211 88.8458 191.12 88.8301C191.05 88.8301 190.95 88.9201 191 89.0001C191.05 89.0801 191.12 89.0901 191.17 89.1701C191.22 89.2501 191.17 89.2401 191.26 89.2901H191.14C190.978 89.2938 190.818 89.248 190.682 89.1587C190.546 89.0694 190.441 88.9408 190.38 88.7901C190.233 88.4933 190.144 88.1706 190.12 87.8401C190.125 87.8291 190.127 87.8172 190.127 87.8051C190.127 87.7931 190.125 87.7812 190.12 87.7701L189.48 87.0601C189.432 87.1823 189.432 87.318 189.48 87.4401L189.55 87.5801V87.7501H189.36C189.252 87.632 189.164 87.4968 189.1 87.3501C189.01 87.0001 188.96 86.6401 188.89 86.2901C188.873 86.1148 188.843 85.941 188.8 85.7701C188.748 85.5699 188.685 85.3729 188.61 85.1801V85.7301C188.61 85.7801 188.49 85.7301 188.47 85.6401C188.361 85.4537 188.297 85.2452 188.28 85.0301C188.268 84.5253 188.339 84.022 188.49 83.5401C188.536 83.3634 188.593 83.1898 188.66 83.0201C188.637 83.0771 188.607 83.1309 188.57 83.1801L188.48 83.2701V83.1501C188.477 82.9253 188.536 82.7039 188.65 82.5101C188.82 82.1301 189.03 81.7501 189.22 81.3801C189.299 81.2481 189.385 81.1211 189.48 81.0001L189.31 81.1801L189.19 81.2501V81.1801C189.254 81.0731 189.324 80.9696 189.4 80.8701C189.625 80.5976 189.888 80.3585 190.18 80.1601C190.248 80.1365 190.322 80.1365 190.39 80.1601L191.39 80.3701L191.74 80.4601C191.645 80.5582 191.564 80.6693 191.5 80.7901C191.469 80.8505 191.453 80.9174 191.453 80.9851C191.453 81.0529 191.469 81.1197 191.5 81.1801C191.517 81.2051 191.526 81.2348 191.526 81.2651C191.526 81.2955 191.517 81.3251 191.5 81.3501C191.272 81.5463 191.08 81.7796 190.93 82.0401V82.1301C190.93 82.1301 191.26 82.4601 191.43 82.6501C191.44 82.6801 191.44 82.7101 191.43 82.7401C191.354 82.869 191.315 83.0157 191.315 83.1651C191.315 83.3145 191.354 83.4613 191.43 83.5901C191.441 83.6347 191.462 83.6765 191.49 83.713C191.518 83.7495 191.553 83.7798 191.594 83.8023C191.634 83.8247 191.678 83.8388 191.724 83.8436C191.77 83.8483 191.816 83.8438 191.86 83.8301C191.852 84.0245 191.912 84.2156 192.03 84.3701C192.1 84.4401 192.2 84.4901 192.27 84.5601C192.312 84.5895 192.344 84.6315 192.36 84.6801C192.416 84.8584 192.52 85.0175 192.661 85.1394C192.803 85.2613 192.976 85.3413 193.16 85.3701C193.448 85.4101 193.74 85.3501 193.99 85.2001C194.08 85.2001 194.11 85.1301 194.13 85.2001C194.186 85.5491 194.298 85.8861 194.46 86.2001C194.667 86.5661 194.923 86.9021 195.22 87.2001C195.487 87.4551 195.814 87.6401 196.17 87.7401C196.61 87.8391 197.07 87.7151 197.4 87.4101C197.607 87.2003 197.783 86.9611 197.92 86.7001L198.35 86.0101C198.539 85.7494 198.781 85.5314 199.06 85.3701C199.106 85.3345 199.16 85.3097 199.217 85.2976C199.274 85.2855 199.333 85.2864 199.39 85.3001L199.32 85.4401C199.267 85.5257 199.239 85.6244 199.239 85.7251C199.239 85.8259 199.267 85.9246 199.32 86.0101C199.39 86.1001 199.44 86.1001 199.49 86.0101C199.54 85.9201 199.63 85.7501 199.82 85.7701C200.01 85.7901 200.01 85.6501 200.03 85.5301C200.05 85.0094 200.205 84.5027 200.48 84.0601C200.531 84.0073 200.588 83.9604 200.65 83.9201V84.3001C200.669 84.4061 200.7 84.5101 200.74 84.6101L200.8 84.4801C200.817 84.4442 200.844 84.4138 200.878 84.3926C200.911 84.3713 200.95 84.3601 200.99 84.3601C201.037 84.3519 201.08 84.3271 201.11 84.2901C201.176 84.2127 201.221 84.1199 201.242 84.0204C201.263 83.9208 201.259 83.8176 201.23 83.7201C201.206 83.5711 201.206 83.4192 201.23 83.2701C201.23 83.0811 201.278 82.8951 201.37 82.7301C201.392 82.6787 201.422 82.6313 201.46 82.5901H201.53V82.9201C201.522 82.9496 201.522 82.9806 201.53 83.0101H201.62L201.8 82.8901C201.868 82.7683 201.899 82.6294 201.89 82.4901C201.876 82.4107 201.876 82.3295 201.89 82.2501V81.4301C201.89 81.3201 201.89 81.3101 201.96 81.2401L202.07 81.1801V81.6201C202.077 81.6052 202.089 81.5926 202.103 81.5838C202.117 81.575 202.133 81.5702 202.15 81.5701ZM189.86 77.0101L190.45 76.4201C190.484 76.383 190.525 76.3525 190.57 76.3301C190.64 76.2601 190.57 76.1901 190.57 76.1201C190.57 76.0501 190.48 76.1201 190.4 76.1201H190.31V76.0001C190.335 75.9182 190.377 75.8427 190.434 75.7788C190.491 75.7149 190.561 75.6642 190.64 75.6301C190.899 75.537 191.181 75.537 191.44 75.6301C191.462 75.6407 191.486 75.6463 191.51 75.6463C191.534 75.6463 191.558 75.6407 191.58 75.6301L192.15 75.3201C192.24 75.3201 192.22 75.2301 192.15 75.1801C192.08 75.1301 191.98 75.0601 191.89 75.1801C191.861 75.1878 191.83 75.1878 191.8 75.1801C191.8 75.0101 191.97 74.8701 192.13 74.8001C192.4 74.7171 192.69 74.7171 192.96 74.8001H193C193.07 74.8001 193.28 74.8901 193.45 74.8001L193.8 74.6801C193.89 74.6801 193.89 74.6101 193.8 74.5601C193.71 74.5101 193.68 74.4201 193.59 74.4901C193.5 74.5601 193.59 74.4901 193.5 74.4901C193.481 74.4698 193.47 74.443 193.47 74.4151C193.47 74.3873 193.481 74.3605 193.5 74.3401C193.674 74.2086 193.894 74.1511 194.11 74.1801C194.307 74.1953 194.495 74.2684 194.65 74.3901H194.72C194.754 74.4296 194.798 74.459 194.847 74.4749C194.897 74.4907 194.95 74.4926 195 74.4801C195.057 74.4458 195.123 74.4276 195.19 74.4276C195.257 74.4276 195.323 74.4458 195.38 74.4801H195.45V74.3901C195.434 74.3285 195.398 74.2742 195.347 74.236C195.296 74.1978 195.234 74.1781 195.17 74.1801H195.1C195.219 74.0874 195.36 74.0276 195.509 74.0065C195.658 73.9854 195.81 74.0039 195.95 74.0601C196.156 74.1441 196.336 74.2821 196.47 74.4601C196.523 74.4925 196.58 74.5161 196.64 74.5301C196.777 74.5259 196.913 74.5497 197.04 74.6001C197.16 74.6701 197.11 74.6001 197.13 74.6901C197.145 74.658 197.154 74.6231 197.156 74.5876C197.157 74.5521 197.152 74.5166 197.14 74.4831C197.128 74.4497 197.109 74.4189 197.085 74.3927C197.061 74.3664 197.032 74.3452 197 74.3301H196.8V74.1801C196.909 74.1588 197.021 74.1588 197.13 74.1801C197.446 74.2171 197.73 74.3881 197.91 74.6501C197.98 74.7701 198.038 74.8971 198.08 75.0301C198.165 75.0197 198.251 75.0317 198.33 75.0651C198.409 75.0984 198.478 75.1519 198.53 75.2201H198.6C198.641 75.2117 198.682 75.1983 198.72 75.1801C198.718 75.1022 198.692 75.0267 198.645 74.9641C198.599 74.9015 198.534 74.8547 198.46 74.8301H198.39C198.48 74.8301 198.56 74.7601 198.65 74.8301C198.8 74.8441 198.945 74.8851 199.08 74.9501C199.436 75.0951 199.702 75.3991 199.8 75.7701C199.97 75.8601 200.08 75.9601 200.2 76.0301H200.34V75.8201C200.325 75.7487 200.294 75.6817 200.249 75.6245C200.204 75.5672 200.146 75.5212 200.08 75.4901L199.99 75.4201C200.099 75.3956 200.213 75.4002 200.32 75.4336C200.427 75.4669 200.524 75.5278 200.6 75.6101C200.785 75.7661 200.923 75.9701 201 76.2001C201.008 76.2376 201.025 76.2726 201.049 76.3021C201.074 76.3317 201.105 76.355 201.14 76.3701C201.216 76.4271 201.286 76.4901 201.35 76.5601C201.44 76.3001 201.23 76.1601 201.16 75.9701C201.236 75.9717 201.311 75.9895 201.38 76.0222C201.449 76.055 201.511 76.102 201.56 76.1601C201.7 76.3061 201.826 76.4631 201.94 76.6301C202.012 76.7521 202.092 76.8691 202.18 76.9801C202.252 77.1141 202.299 77.2601 202.32 77.4101C202.334 77.7492 202.287 78.088 202.18 78.4101C202.168 78.63 202.168 78.8503 202.18 79.0701C202.19 79.1001 202.19 79.1301 202.18 79.1601C202.092 79.2329 202.019 79.3226 201.966 79.4239C201.912 79.5252 201.88 79.6361 201.87 79.7501C201.823 80.0483 201.823 80.352 201.87 80.6501V80.7201C201.732 80.8107 201.619 80.9339 201.541 81.0787C201.462 81.2235 201.421 81.3854 201.42 81.5501V82.0701C201.276 82.0993 201.142 82.1667 201.033 82.2652C200.924 82.3638 200.844 82.4898 200.8 82.6301C200.73 82.7701 200.71 82.9401 200.63 83.0801C200.55 83.2201 200.54 83.1701 200.49 83.2201V83.0301C200.55 82.7172 200.573 82.3984 200.56 82.0801C200.57 81.6103 200.481 81.1437 200.3 80.7101V80.5401C200.457 80.3803 200.555 80.1726 200.58 79.9501C200.605 79.6173 200.605 79.283 200.58 78.9501C200.584 78.7141 200.498 78.4853 200.34 78.3101C200.259 78.2267 200.154 78.1697 200.04 78.1465C199.926 78.1233 199.807 78.135 199.7 78.1801C199.561 78.2391 199.442 78.338 199.358 78.4643C199.274 78.5905 199.23 78.7387 199.23 78.8901V79.2401C198.877 78.8857 198.45 78.6127 197.98 78.4401C197.71 78.3451 197.432 78.2748 197.15 78.2301H196.54C196.146 78.2316 195.754 78.2957 195.38 78.4201C195.17 78.4901 194.98 78.5901 194.77 78.6601C194.748 78.6715 194.724 78.6775 194.7 78.6775C194.676 78.6775 194.652 78.6715 194.63 78.6601C194.181 78.3895 193.697 78.1841 193.19 78.0501C192.951 77.9855 192.707 77.9453 192.46 77.9301C191.96 77.8301 191.46 77.7601 191.04 77.6301C190.664 77.5404 190.306 77.3883 189.98 77.1801C189.958 77.1129 189.916 77.0537 189.86 77.0101ZM199.31 81.7101C199.31 81.8801 199 81.9201 198.67 81.8301V82.1801C198.675 82.22 198.675 82.2603 198.67 82.3001H198.53C198.431 82.2199 198.337 82.133 198.25 82.0401C198.191 82.0655 198.139 82.1039 198.098 82.1524C198.056 82.2009 198.026 82.2583 198.01 82.3201C197.94 82.5101 197.84 82.5301 197.7 82.3201C197.648 82.2677 197.591 82.2208 197.53 82.1801C197.466 82.2714 197.396 82.3582 197.32 82.4401C197.303 82.4606 197.281 82.4774 197.257 82.4894C197.233 82.5014 197.207 82.5085 197.18 82.5101C197.144 82.4749 197.114 82.4344 197.09 82.3901C197.08 82.3205 197.08 82.2498 197.09 82.1801C196.97 82.4901 196.83 82.7501 196.48 82.8201C196.467 82.6894 196.491 82.5577 196.55 82.4401C196.62 82.3201 196.55 82.4401 196.55 82.3701C196.394 82.5201 196.301 82.724 196.29 82.9401C196.306 83.3731 196.418 83.7971 196.62 84.1801C196.76 84.5301 196.93 84.8701 197.07 85.1801C197.198 85.4971 197.256 85.8381 197.24 86.1801C197.256 86.354 197.221 86.5288 197.14 86.6832C197.058 86.8376 196.934 86.965 196.781 87.0498C196.628 87.1346 196.454 87.1731 196.28 87.1608C196.106 87.1484 195.939 87.0856 195.8 86.9801C195.571 86.8384 195.371 86.6553 195.21 86.4401C195.07 86.2501 194.93 86.0601 194.81 85.8701C194.743 85.7311 194.686 85.5874 194.64 85.4401V85.3001C194.696 85.2967 194.751 85.3114 194.798 85.342C194.845 85.3727 194.881 85.4176 194.9 85.4701C194.95 85.5501 195.16 85.8701 195.3 86.0601C195.415 86.2901 195.588 86.4861 195.8 86.6301C195.87 86.6597 195.946 86.6752 196.022 86.6756C196.098 86.6761 196.174 86.6615 196.244 86.6327C196.315 86.6039 196.379 86.5615 196.433 86.5078C196.487 86.4542 196.531 86.3904 196.56 86.3201V86.2501C196.602 86.1256 196.618 85.9936 196.606 85.8627C196.594 85.7318 196.554 85.6049 196.49 85.4901C196.32 85.1101 196.11 84.7301 195.92 84.3601C195.7 83.9613 195.548 83.5288 195.47 83.0801C195.458 82.9704 195.458 82.8598 195.47 82.7501C195.32 82.7621 195.17 82.7621 195.02 82.7501L194.57 82.6301L194.36 82.7701C194.369 82.7239 194.369 82.6763 194.36 82.6301C194.362 82.5385 194.339 82.4481 194.293 82.3687C194.247 82.2893 194.18 82.2241 194.1 82.1801C194.05 82.1801 194.001 82.2001 193.966 82.2358C193.93 82.2714 193.91 82.3197 193.91 82.3701C193.903 82.4722 193.923 82.5743 193.969 82.6658C194.014 82.7573 194.084 82.8348 194.17 82.8901L194.57 83.1701C194.71 83.2601 194.69 83.2601 194.76 83.1701C194.77 83.124 194.77 83.0763 194.76 83.0301C194.95 83.0301 195.02 83.1501 195.04 83.3401C195.086 83.5801 195.15 83.8181 195.23 84.0501C195.234 84.1004 195.229 84.1511 195.213 84.1992C195.198 84.2473 195.173 84.2918 195.14 84.3301C195.017 84.4858 194.855 84.6064 194.67 84.6801C194.519 84.7388 194.351 84.7388 194.2 84.6801C194.287 84.5933 194.381 84.5131 194.48 84.4401C194.522 84.3974 194.552 84.3447 194.568 84.2869C194.584 84.2291 194.585 84.1682 194.57 84.1101C194.563 84.0914 194.551 84.0749 194.535 84.0626C194.519 84.0502 194.5 84.0425 194.48 84.0401C194.387 84.0286 194.293 84.0286 194.2 84.0401C194.128 84.0453 194.06 84.0774 194.01 84.1301C193.846 84.2602 193.672 84.3772 193.49 84.4801C193.342 84.5572 193.173 84.5851 193.007 84.56C192.842 84.5348 192.689 84.4578 192.57 84.3401C192.485 84.2444 192.42 84.1321 192.38 84.0101L192.31 83.8701C192.275 83.906 192.234 83.9363 192.19 83.9601C192.14 83.9601 192.12 83.8401 192.19 83.8201C192.219 83.6901 192.26 83.5631 192.31 83.4401C192.321 83.4186 192.327 83.3945 192.327 83.3701C192.327 83.3457 192.321 83.3217 192.31 83.3001C192.23 83.1889 192.123 83.0995 192 83.0401C191.91 82.9701 191.83 83.0401 191.76 83.0401H191.64C191.642 83.0002 191.642 82.9601 191.64 82.9201C191.657 82.8148 191.704 82.7165 191.774 82.6368C191.845 82.5571 191.937 82.4993 192.04 82.4701H192.16C191.873 82.3607 191.614 82.1901 191.4 81.9701C191.33 81.9001 191.31 81.8501 191.4 81.7801C191.49 81.7101 191.66 81.5501 191.8 81.4501C192.068 81.3548 192.362 81.3548 192.63 81.4501C192.877 81.5321 193.103 81.6681 193.29 81.8501L193.36 81.9201C193.304 81.7489 193.208 81.593 193.082 81.4646C192.955 81.3362 192.8 81.2389 192.63 81.1801C192.325 81.0668 192.005 81.0026 191.68 80.9901C191.696 80.9296 191.729 80.8748 191.775 80.8323C191.821 80.7898 191.878 80.7613 191.94 80.7501L192.48 80.6501C192.672 80.6074 192.851 80.5181 193 80.3901C192.903 80.3106 192.8 80.2403 192.69 80.1801C192.41 80.0601 192.12 79.9201 191.84 79.8301C191.586 79.7179 191.316 79.6438 191.04 79.6101C190.655 79.5563 190.276 79.4625 189.91 79.3301C189.468 79.2096 189.047 79.0242 188.66 78.7801C188.26 78.5201 187.92 78.1801 187.66 77.7801C187.599 77.6766 187.552 77.5657 187.52 77.4501V77.3301H187.64L187.8 77.4201C188.06 77.6301 188.3 77.8901 188.56 78.0801C188.879 78.3116 189.239 78.4812 189.62 78.5801C189.93 78.6501 190.23 78.7201 190.54 78.7701C190.85 78.8201 191.06 78.7701 191.32 78.8401L191.89 78.9101C192.107 78.9251 192.322 78.9651 192.53 79.0301C192.86 79.1501 193.17 79.2901 193.48 79.4101C193.498 79.4217 193.519 79.4279 193.54 79.4279C193.561 79.4279 193.582 79.4217 193.6 79.4101C193.73 79.3811 193.857 79.3401 193.98 79.2901V79.1801C193.749 79.0515 193.512 78.9347 193.27 78.8301C192.815 78.6513 192.337 78.5402 191.85 78.5001L191.19 78.4301C190.828 78.3703 190.471 78.2868 190.12 78.1801C189.757 78.048 189.419 77.8553 189.12 77.6101C188.869 77.416 188.681 77.1515 188.58 76.8501V76.6401C188.607 76.6289 188.636 76.623 188.665 76.623C188.694 76.623 188.723 76.6289 188.75 76.6401L189.01 76.9201C189.15 77.0601 189.29 77.2001 189.46 77.3501C189.856 77.6601 190.312 77.8851 190.8 78.0101C191.08 78.0801 191.37 78.1301 191.65 78.1801C192.1 78.2501 192.57 78.3201 193.02 78.4201C193.554 78.5158 194.051 78.7543 194.46 79.1101C194.63 79.2501 194.77 79.1801 194.93 79.1101C195.015 79.0941 195.102 79.1059 195.18 79.1437C195.257 79.1816 195.321 79.2435 195.36 79.3201C195.48 79.6431 195.48 79.9971 195.36 80.3201C195.349 80.3799 195.357 80.4415 195.382 80.4969C195.407 80.5522 195.448 80.5987 195.5 80.6301H195.62C195.76 80.5729 195.912 80.5539 196.061 80.5749C196.211 80.596 196.352 80.6565 196.47 80.7501C196.507 80.7793 196.553 80.7952 196.6 80.7952C196.647 80.7952 196.693 80.7793 196.73 80.7501C196.926 80.6585 197.116 80.5549 197.3 80.4401C197.49 80.3201 197.39 80.2701 197.44 80.1801C197.508 80.0417 197.618 79.9284 197.755 79.8565C197.892 79.7847 198.047 79.7579 198.2 79.7801C198.415 79.7801 198.63 79.8031 198.84 79.8501C199.01 79.896 199.19 79.896 199.36 79.8501C199.467 79.8372 199.568 79.7906 199.647 79.7169C199.726 79.6432 199.78 79.5463 199.8 79.4401V78.8001C199.8 78.7301 199.8 78.6601 199.92 78.6601C200.04 78.6601 200.01 78.7501 200.01 78.8301C200.082 79.1601 200.082 79.5001 200.01 79.8301C199.99 79.9727 199.915 80.1018 199.801 80.1897C199.687 80.2776 199.543 80.3172 199.4 80.3001H198.55C198.435 80.2928 198.321 80.3272 198.229 80.397C198.137 80.4668 198.074 80.5673 198.05 80.6801C198.039 80.7261 198.039 80.7741 198.05 80.8201C198.12 80.9601 198.17 81.0801 198.38 81.0601C198.492 81.0701 198.58 81.1581 198.59 81.2701C198.612 81.3899 198.673 81.499 198.763 81.5805C198.854 81.6619 198.969 81.711 199.09 81.7201L199.31 81.7101ZM193.74 81.0201C193.86 81.1431 193.987 81.2601 194.12 81.3701C194.188 81.4212 194.27 81.4489 194.355 81.4489C194.44 81.4489 194.522 81.4212 194.59 81.3701C194.722 81.2916 194.849 81.2048 194.97 81.1101V81.0401C194.959 80.9948 194.938 80.9526 194.908 80.9163C194.879 80.88 194.842 80.8506 194.8 80.8301C194.715 80.8077 194.625 80.8077 194.54 80.8301L194.37 80.9001C194.2 80.946 194.02 80.946 193.85 80.9001L193.74 81.0201ZM197 81.3501C197.041 81.3837 197.089 81.4077 197.14 81.4201C197.315 81.4536 197.474 81.5452 197.59 81.6801C197.706 81.6911 197.824 81.6911 197.94 81.6801C198.01 81.6801 198.06 81.6101 198.13 81.5901C198.073 81.521 198.009 81.4574 197.94 81.4001C197.642 81.2746 197.31 81.257 197 81.3501ZM184.54 84.4301C184.665 84.5639 184.824 84.6607 185.001 84.7101C185.177 84.7595 185.364 84.7595 185.54 84.7101C185.599 84.6927 185.653 84.6621 185.698 84.6204C185.743 84.5788 185.778 84.5274 185.8 84.4701C185.425 84.5568 185.032 84.5071 184.69 84.3301C184.528 84.2379 184.388 84.1129 184.278 83.963C184.167 83.8132 184.09 83.6418 184.05 83.4601C183.975 83.1939 183.987 82.9107 184.084 82.6517C184.181 82.3927 184.359 82.1715 184.59 82.0201C184.487 82.3517 184.519 82.7106 184.681 83.0181C184.842 83.3257 185.119 83.5566 185.45 83.6601H185.59C185.888 83.7221 186.198 83.6831 186.472 83.5491C186.745 83.415 186.966 83.1938 187.1 82.9201C186.995 83.0011 186.895 83.0879 186.8 83.1801C186.363 83.4801 185.787 83.4801 185.35 83.1801C185.231 83.1019 185.133 82.9964 185.064 82.8725C184.995 82.7487 184.956 82.61 184.951 82.468C184.946 82.3261 184.975 82.1851 185.036 82.0567C185.097 81.9283 185.187 81.8163 185.3 81.7301C185.313 81.8136 185.346 81.893 185.394 81.9623C185.443 82.0315 185.506 82.0889 185.58 82.1301C185.727 82.2111 185.885 82.2684 186.05 82.3001C186.229 82.3289 186.413 82.3159 186.586 82.2621C186.76 82.2083 186.918 82.1153 187.05 81.9901C187.195 81.8415 187.307 81.6644 187.38 81.4701C187.57 81.0201 187.71 80.5501 187.92 80.1001C188.056 79.8258 188.206 79.5588 188.37 79.3001C188.37 79.2301 188.46 79.3001 188.51 79.3001L189.03 79.5801L189.36 79.7201L189.22 79.8401C188.907 80.1742 188.638 80.5472 188.42 80.9501C188.25 81.2601 188.09 81.5401 187.95 81.8501C187.81 82.1601 187.67 82.5601 187.55 82.9101L187.27 83.7101C187.2 83.9201 187.1 84.1101 187.01 84.3201C186.876 84.6242 186.643 84.8743 186.35 85.0301C186.178 85.1139 185.991 85.1648 185.8 85.1801C185.611 85.204 185.419 85.204 185.23 85.1801C185.077 85.1684 184.931 85.1105 184.811 85.0141C184.692 84.9177 184.604 84.7873 184.56 84.6401C184.574 84.5697 184.567 84.4967 184.54 84.4301ZM198.61 83.6301C198.622 83.7401 198.622 83.8501 198.61 83.9601C198.61 84.1001 198.52 84.1001 198.4 84.0301L198.12 83.8901H198C198.04 83.9708 198.062 84.0599 198.062 84.1501C198.062 84.2404 198.04 84.3294 198 84.4101C197.984 84.4587 197.952 84.5008 197.91 84.5301H197.8L197.73 84.3201C197.706 84.2647 197.661 84.221 197.605 84.1986C197.548 84.1761 197.486 84.1767 197.43 84.2001C197.337 84.2255 197.249 84.266 197.17 84.3201H197.03C196.857 83.9894 196.746 83.6304 196.7 83.2601L196.8 83.3801C196.882 83.4426 196.982 83.4764 197.085 83.4764C197.188 83.4764 197.288 83.4426 197.37 83.3801C197.394 83.3285 197.407 83.2721 197.407 83.2151C197.407 83.1581 197.394 83.1018 197.37 83.0501C197.37 82.9801 197.3 82.9301 197.28 82.8601C197.42 82.8601 197.42 82.7401 197.78 83.1701L198.04 83.0301C198.13 83.0301 198.04 82.8901 198.04 82.8401V82.6301L198.21 82.7001C198.259 82.7165 198.301 82.7481 198.33 82.7901C198.479 82.9584 198.647 83.1093 198.83 83.2401C198.886 83.2862 198.93 83.3444 198.959 83.4103C198.989 83.4762 199.003 83.548 199 83.6201V83.7101H198.93C198.68 83.6301 198.68 83.6301 198.61 83.6301ZM186.8 82.0401C186.607 81.9264 186.383 81.8773 186.16 81.9001C186.067 81.9116 185.973 81.9116 185.88 81.9001C185.822 81.8905 185.767 81.8674 185.719 81.8327C185.671 81.7979 185.632 81.7526 185.605 81.7002C185.578 81.6478 185.563 81.5898 185.562 81.5307C185.561 81.4717 185.574 81.4133 185.6 81.3601C185.69 81.3601 185.77 81.4801 185.86 81.5301C185.95 81.5801 185.98 81.5301 185.98 81.4601C185.977 81.4018 185.991 81.3438 186.022 81.2938C186.052 81.2439 186.097 81.2042 186.15 81.1801C186.226 81.1534 186.308 81.1476 186.387 81.1635C186.467 81.1793 186.54 81.2161 186.6 81.2701C186.802 81.4701 186.88 81.7661 186.8 82.0401Z" fill="white" fill-opacity="0.24"></path> <path d="M170.154 356C170.154 356.139 170.154 356.278 170.154 356.417C170.154 361.561 170.154 366.774 170.154 371.918C170.154 371.987 170.154 372.126 170.154 372.196C170.154 372.265 170.083 372.335 170.013 372.335C169.519 372.543 169.096 372.752 168.603 372.961C167.968 373.239 167.263 373.517 166.628 373.864C165.853 374.212 165.077 374.559 164.301 374.907C163.667 375.185 163.032 375.463 162.398 375.741C161.622 376.088 160.846 376.436 160.071 376.784C159.436 377.062 158.801 377.34 158.096 377.687C157.603 377.896 157.039 378.174 156.545 378.382C156.475 378.382 156.475 378.452 156.404 378.382C156.404 378.382 156.404 378.382 156.333 378.382C156.545 378.035 156.757 377.757 156.968 377.409C158.096 375.532 159.295 373.656 160.423 371.779C161.622 369.763 162.891 367.747 164.09 365.731C165.218 363.855 166.346 361.978 167.475 360.171C168.321 358.78 169.167 357.46 169.942 356.07C170.083 356.07 170.083 356 170.154 356C170.154 356 170.083 356 170.154 356Z" fill="white" fill-opacity="0.24"></path> <path d="M183.833 378.382C182.776 379.077 181.648 379.703 180.59 380.329C177.135 382.344 173.75 384.291 170.295 386.306C170.225 386.306 170.225 386.376 170.154 386.376C170.083 386.376 170.083 386.306 170.083 386.306C170.083 386.237 170.083 386.167 170.083 386.098C170.083 381.58 170.083 377.062 170.083 372.543C170.083 372.474 170.083 372.404 170.083 372.335C170.083 372.265 170.154 372.265 170.225 372.265C170.507 372.404 170.789 372.543 171.141 372.682C171.987 373.1 172.904 373.447 173.75 373.864C174.526 374.212 175.231 374.559 176.007 374.837C176.782 375.185 177.487 375.532 178.263 375.88C178.898 376.158 179.603 376.436 180.237 376.784C180.872 377.062 181.577 377.34 182.212 377.687C182.705 377.896 183.199 378.174 183.763 378.382C183.763 378.313 183.763 378.382 183.833 378.382Z" fill="white" fill-opacity="0.24"></path> <path d="M170.153 400C170.153 400 170.082 400 170.153 400C170.082 400 170.082 400 170.012 399.93C168.602 397.984 167.262 396.107 165.852 394.161C164.441 392.215 163.031 390.269 161.621 388.322C160.281 386.445 158.871 384.569 157.531 382.622C157.178 382.136 156.826 381.649 156.473 381.163C156.473 381.093 156.403 381.093 156.403 381.024C156.473 381.024 156.473 381.093 156.544 381.093C158.448 382.205 160.422 383.318 162.326 384.43C164.512 385.75 166.768 387.002 168.954 388.322C169.307 388.531 169.73 388.739 170.082 388.948C170.153 388.948 170.153 389.017 170.153 389.087C170.153 389.156 170.153 389.226 170.153 389.295C170.153 392.771 170.153 396.177 170.153 399.652C170.153 399.722 170.153 399.861 170.153 400Z" fill="white" fill-opacity="0.24"></path> <path d="M156.475 378.452C156.475 378.382 156.475 378.382 156.475 378.452C157.18 378.104 157.885 377.826 158.59 377.479C159.507 377.062 160.423 376.644 161.34 376.227C162.045 375.88 162.75 375.602 163.455 375.254C164.443 374.768 165.5 374.351 166.487 373.864C167.193 373.586 167.898 373.238 168.603 372.96C169.096 372.752 169.59 372.543 170.084 372.265C170.154 372.265 170.154 372.196 170.225 372.196C170.225 372.196 170.225 372.196 170.225 372.265C170.225 372.335 170.225 372.335 170.225 372.404C170.225 376.992 170.225 381.58 170.225 386.167C170.225 386.237 170.225 386.306 170.225 386.376C170.154 386.445 170.154 386.376 170.084 386.376C169.872 386.237 169.661 386.167 169.519 386.028C165.218 383.526 160.917 381.024 156.616 378.521C156.545 378.452 156.475 378.452 156.475 378.452Z" fill="white" fill-opacity="0.24"></path> <path d="M183.763 381.024C183.763 381.093 183.763 381.093 183.693 381.163C179.603 386.863 175.513 392.493 171.424 398.193C171 398.818 170.577 399.374 170.154 400C170.154 400 170.154 400 170.154 399.93C170.154 399.861 170.154 399.861 170.154 399.791C170.154 396.246 170.154 392.701 170.154 389.156C170.154 389.087 170.154 389.017 170.154 388.948C171.071 388.392 171.988 387.836 172.904 387.349C176.5 385.264 180.097 383.179 183.693 381.093C183.693 381.024 183.763 381.024 183.763 381.024Z" fill="white" fill-opacity="0.24"></path> <path d="M170.154 372.265C170.154 372.196 170.154 372.126 170.154 372.126C170.154 366.843 170.154 361.491 170.154 356.208C170.154 356.139 170.154 356.069 170.154 356.069C174.667 363.437 179.18 370.806 183.693 378.174C183.763 378.243 183.834 378.313 183.834 378.382C183.552 378.243 183.27 378.104 182.917 377.965C182.565 377.826 182.212 377.618 181.859 377.479C181.648 377.409 181.436 377.27 181.154 377.2C180.802 377.061 180.379 376.853 180.026 376.714C179.815 376.644 179.603 376.505 179.391 376.436C178.898 376.227 178.404 376.019 177.911 375.81C177.629 375.671 177.417 375.602 177.135 375.463C176.782 375.324 176.43 375.115 176.077 374.976C175.866 374.907 175.654 374.768 175.443 374.698C174.949 374.49 174.456 374.281 173.962 374.072C173.68 373.933 173.468 373.864 173.186 373.725C172.834 373.586 172.481 373.377 172.129 373.238C171.917 373.099 171.635 373.03 171.424 372.891C171 372.682 170.577 372.474 170.154 372.265Z" fill="white" fill-opacity="0.24"></path> <path d="M106.174 179.606L112 173.78L117.829 179.609L121.219 176.219L112 167L102.784 176.216L106.174 179.606ZM97 182L100.39 178.61L103.78 182L100.39 185.39L97 182ZM106.174 184.394L112 190.22L117.829 184.391L121.219 187.78L112 197L102.784 187.784L102.779 187.78L106.174 184.394ZM120.22 182L123.61 178.61L127 182L123.61 185.39L120.22 182ZM115.438 181.997H115.441V182L112 185.441L108.563 182.006L108.557 182L108.563 181.995L109.165 181.392L109.458 181.1L112 178.559L115.439 181.998L115.438 181.997Z" fill="white" fill-opacity="0.24"></path> <path fill-rule="evenodd" clip-rule="evenodd" d="M1007.99 84.0662C1007.5 84.3535 1007.01 84.6408 1006.51 84.915C1006.74 85.3408 1006.97 85.7764 1007.21 86.2129C1007.25 86.2753 1007.28 86.3377 1007.31 86.4001C1007.64 86.9919 1007.96 87.5838 1008.26 88.155C1008.33 88.3989 1008.49 88.4018 1008.67 88.2431C1008.83 88.1508 1009 88.0555 1009.17 87.9583C1009.87 87.5601 1010.63 87.1312 1011.44 86.7554C1012.45 86.2878 1013.58 86.6313 1014.04 87.4481C1017.08 92.6778 1019.96 97.9046 1022.84 103.131C1023.31 103.787 1023.11 104.592 1022.26 105.062C1021.59 105.535 1020.74 106.006 1019.99 106.397C1019.73 106.635 1019.64 106.714 1019.79 107.041C1020.16 107.937 1020.53 108.994 1020.89 110.052C1020.96 110.296 1021.03 110.5 1021.1 110.703C1021.18 110.907 1021.25 111.11 1021.32 111.354C1023.85 109.943 1026.29 108.611 1028.73 107.279C1028.82 107.375 1028.86 107.471 1028.89 107.55C1028.91 107.605 1028.92 107.653 1028.96 107.687C1029.78 109.4 1030.77 111.116 1031.76 112.832C1031.83 113.076 1031.91 113.158 1032.24 113.002C1033.26 112.373 1034.27 111.744 1035.36 111.197C1035.66 111.06 1035.63 110.979 1035.57 110.795C1035.57 110.771 1035.56 110.744 1035.55 110.715C1035.28 110.265 1035.04 109.796 1034.79 109.327C1034.55 108.857 1034.3 108.388 1034.03 107.938C1033.77 107.489 1033.52 107.02 1033.28 106.55C1033.03 106.081 1032.78 105.611 1032.52 105.162C1033.45 104.612 1034.29 104.142 1035.13 103.671C1035.31 103.616 1035.36 103.685 1035.43 103.789C1035.45 103.829 1035.49 103.875 1035.53 103.921C1036.35 105.634 1037.34 107.35 1038.33 109.066C1038.4 109.309 1038.48 109.392 1038.82 109.236C1039.28 108.961 1039.79 108.687 1040.29 108.413C1040.79 108.138 1041.3 107.864 1041.76 107.589C1042.32 107.367 1042.28 107.282 1042.07 106.917L1042.04 106.866C1041.59 106.05 1041.11 105.212 1040.64 104.375C1040.16 103.538 1039.69 102.7 1039.23 101.884C1039.08 101.557 1039.18 101.316 1039.51 101.161C1041.46 99.82 1043.33 98.3972 1044.89 96.4838C1046.11 95.0494 1046.76 93.3625 1046.68 91.4201C1046.59 89.801 1046.08 88.4171 1045.33 86.9481C1044.72 85.8052 1043.87 84.7387 1042.84 83.9927C1041.4 83.1585 1039.85 82.8887 1038.12 83.1007C1037.83 83.1361 1037.56 83.192 1037.29 83.2479C1037.02 83.3038 1036.75 83.3597 1036.46 83.3951C1036.56 83.3021 1036.61 83.2081 1036.64 83.1303C1036.67 83.0752 1036.69 83.0282 1036.73 82.9954C1037.18 82.1137 1037.55 81.1497 1037.59 80.18C1037.65 78.887 1037.21 77.747 1036.61 76.6041C1035.7 74.9705 1034.36 73.7338 1032.41 73.2143C1031.03 72.9473 1029.63 73.0035 1028.3 73.3036L1024.3 74.6889C1023.96 74.8447 1023.8 74.8418 1023.65 74.5157C1023.43 73.9457 1023.13 73.455 1022.82 72.9644C1022.14 71.7392 1021.45 70.5141 1020.69 69.2066C1020.65 69.2463 1020.61 69.2456 1020.57 69.2449C1020.53 69.2442 1020.49 69.2434 1020.44 69.2831C1019.94 69.5529 1019.46 69.8233 1018.99 70.0873C1018.38 70.4362 1017.78 70.7741 1017.16 71.0854C1016.91 71.1619 1016.9 71.3235 1017.06 71.488L1017.74 72.7132C1018.42 74.1 1019.1 75.3251 1019.86 76.6326C1019.86 76.6864 1019.87 76.7494 1019.87 76.8125C1019.88 76.9385 1019.9 77.0645 1019.84 77.1174C1019.42 77.3526 1018.98 77.6079 1018.53 77.863C1018.09 78.118 1017.65 78.3729 1017.23 78.608C1017.16 78.3642 1017.08 78.2819 1017 78.1996C1016.55 77.3829 1016.07 76.5455 1015.6 75.7082C1015.12 74.8708 1014.65 74.0335 1014.19 73.2167C1014.12 72.9728 1014.04 72.8906 1013.71 73.0464C1012.69 73.6756 1011.76 74.2254 1010.67 74.7722C1010.34 74.9281 1010.33 75.0897 1010.48 75.4158C1010.97 76.2737 1011.45 77.1111 1011.92 77.9484C1011.98 78.0531 1012.04 78.1587 1012.1 78.2634C1012.52 78.996 1012.94 79.7307 1013.37 80.481C1013.52 80.8072 1013.51 80.9688 1013.17 81.1246C1012.59 81.4377 1012.02 81.7714 1011.45 82.1051C1010.88 82.4388 1010.31 82.7725 1009.72 83.0856C1009.13 83.3988 1008.56 83.7325 1007.99 84.0662ZM1029.98 101.316C1030.07 101.237 1030.23 101.24 1030.23 101.24C1030.5 101.092 1030.77 100.945 1031.04 100.797C1032.49 99.997 1034.01 99.1625 1035.3 98.094C1036.41 97.2238 1037.35 96.3508 1037.98 95.1488C1039.14 93.1473 1037.86 90.456 1035.67 90.0129C1034.61 89.7517 1033.54 89.9753 1032.46 90.199C1030.2 90.7872 1028.15 92.0647 1026.17 93.2899L1025.99 93.4009C1025.69 93.543 1025.73 93.6239 1025.85 93.8841C1025.86 93.9093 1025.87 93.9363 1025.89 93.9652C1026.19 94.4558 1026.46 94.9457 1026.72 95.4357C1026.99 95.9256 1027.25 96.4155 1027.56 96.9062C1027.99 97.7432 1028.45 98.5545 1028.91 99.3846C1029.27 100.011 1029.63 100.649 1029.98 101.316ZM1029.98 85.2218C1029.71 85.6216 1029.36 86.1006 1029.19 86.2594C1028.2 87.1804 1027.21 87.8464 1026.2 88.5343C1025.81 88.7948 1025.43 89.0584 1025.03 89.3402C1024.82 89.4578 1024.63 89.5556 1024.44 89.6533C1024.25 89.7511 1024.06 89.8488 1023.85 89.9664C1023.6 90.0429 1023.44 90.04 1023.37 89.7962C1022.24 87.5926 1021.1 85.5506 1019.88 83.4264C1019.73 83.1003 1019.74 82.9387 1020.08 82.7828C1020.39 82.6118 1020.7 82.4407 1021.01 82.2714C1022.25 81.5879 1023.44 80.9344 1024.78 80.4394C1025.86 80.0542 1027.1 79.8334 1028.24 80.1769C1030.43 80.7816 1031.29 83.3849 1029.98 85.2218Z" fill="white" fill-opacity="0.24"></path> <path fill-rule="evenodd" clip-rule="evenodd" d="M1193.62 430.564V430.562C1193.51 430.57 1192.94 430.604 1191.68 430.604C1190.67 430.604 1189.96 430.574 1189.71 430.562V430.565C1185.82 430.394 1182.92 429.717 1182.92 428.907C1182.92 428.098 1185.82 427.421 1189.71 427.247V429.891C1189.96 429.909 1190.69 429.952 1191.7 429.952C1192.9 429.952 1193.51 429.902 1193.62 429.892V427.249C1197.5 427.422 1200.4 428.099 1200.4 428.907C1200.4 429.717 1197.5 430.392 1193.62 430.564ZM1193.62 426.974V424.608H1199.04V421H1184.3V424.608H1189.71V426.973C1185.31 427.175 1182 428.047 1182 429.091C1182 430.135 1185.31 431.006 1189.71 431.209V438.791H1193.62V431.207C1198.02 431.005 1201.32 430.134 1201.32 429.091C1201.32 428.048 1198.02 427.177 1193.62 426.974Z" fill="white" fill-opacity="0.24"></path> <path fill-rule="evenodd" clip-rule="evenodd" d="M1271.64 320.821L1269.5 321.652L1270.53 317.514L1272.7 316.644L1275.82 304H1283.51L1281.23 313.294L1283.35 312.438L1282.33 316.562L1280.19 317.419L1278.92 322.644H1290.5L1289.19 328H1269.88L1271.64 320.821Z" fill="white" fill-opacity="0.24"></path> <path fill-rule="evenodd" clip-rule="evenodd" d="M1133.75 276.174C1133.75 283.241 1128.01 287.932 1119.54 288.639V295H1113.74V288.576C1108.01 287.93 1102.57 285.729 1098 282.213L1102.27 276.366C1106.07 279.322 1109.67 281.25 1114.01 281.893V269.298C1104.27 266.856 1099.74 263.323 1099.74 256.063C1099.74 249.124 1105.4 244.37 1113.74 243.726V240H1119.54V243.855C1124.08 244.359 1128.4 246.043 1132.08 248.74L1128.35 254.778C1125.41 252.658 1122.41 251.308 1119.28 250.667V262.875C1129.42 265.316 1133.75 269.235 1133.75 276.174ZM1114 261.524V250.216C1109.81 250.538 1107.61 252.788 1107.61 255.615C1107.61 258.31 1108.87 260.048 1114.01 261.527L1114 261.524ZM1125.88 276.622C1125.88 273.734 1124.48 271.999 1119.28 270.519V282.152C1123.48 281.827 1125.88 279.707 1125.88 276.625V276.622Z" fill="white" fill-opacity="0.24"></path> <path fill-rule="evenodd" clip-rule="evenodd" d="M1021.87 422C1022.02 421.998 1022.17 422.069 1022.26 422.197L1029.93 432.671C1029.94 432.686 1029.95 432.702 1029.96 432.718C1029.97 432.737 1029.98 432.756 1029.99 432.776C1030 432.805 1030.01 432.835 1030.01 432.865L1033.72 449.808C1033.72 449.813 1033.73 449.819 1033.73 449.824C1033.73 449.845 1033.73 449.866 1033.73 449.887C1033.74 449.923 1033.73 449.958 1033.73 449.994C1033.72 450.05 1033.7 450.104 1033.67 450.155C1033.63 450.224 1033.57 450.28 1033.51 450.32L1022.13 457.451C1022.05 457.501 1021.96 457.525 1021.87 457.525C1021.78 457.525 1021.69 457.501 1021.61 457.451L1010.23 450.32C1010.22 450.318 1010.22 450.316 1010.21 450.313C1010.2 450.306 1010.19 450.298 1010.18 450.289C1010.14 450.259 1010.11 450.223 1010.08 450.182C1010.08 450.173 1010.07 450.164 1010.07 450.155C1010.04 450.117 1010.03 450.077 1010.02 450.035C1010 449.976 1010 449.915 1010 449.855C1010.01 449.84 1010.01 449.825 1010.01 449.811M1012.15 450.394L1021.01 455.943L1019.24 450.394H1012.15ZM1020.25 450.394L1021.87 455.479L1023.49 450.394H1020.25ZM1023.79 449.434H1019.94L1016.83 439.676L1021.87 430.794L1026.9 439.674L1023.79 449.434ZM1024.49 450.394L1022.73 455.943L1031.58 450.394H1024.49ZM1032.43 449.434H1024.8L1027.54 440.813L1032.43 449.434ZM1032.11 446.914L1029.46 434.811L1027.94 439.566L1032.11 446.914ZM1027.3 438.428L1029.01 433.046L1022.35 423.949V429.703L1027.3 438.428ZM1021.87 422C1021.72 421.998 1021.57 422.069 1021.47 422.197L1013.81 432.671C1013.8 432.684 1013.79 432.699 1013.78 432.713C1013.77 432.728 1013.76 432.744 1013.75 432.759C1013.74 432.793 1013.73 432.829 1013.72 432.865L1010.01 449.808M1014.28 434.811L1011.63 446.915L1015.79 439.567L1014.28 434.811ZM1014.72 433.046L1016.44 438.429L1021.38 429.703V423.948L1014.72 433.046ZM1016.19 440.814L1018.93 449.434H1011.3L1016.19 440.814Z" fill="white" fill-opacity="0.24"></path> <path fill-rule="evenodd" clip-rule="evenodd" d="M1211.13 150.472V146.974C1211.13 141.46 1214.46 138 1220.24 138C1224.64 138 1227.1 139.863 1229 142.26L1225.28 145.11C1223.85 143.362 1222.5 142.335 1220.28 142.335C1217.63 142.335 1216.04 144.161 1216.04 147.09V150.472H1225.91V154.428H1216.04V160.931H1228.92V165H1208V162.035L1211.13 161.121V154.428H1208V150.472H1211.13Z" fill="white" fill-opacity="0.24"></path> <path d="M991.745 235.266C990.946 234.699 990.091 234.094 989.255 233.494C989.236 233.48 989.218 233.466 989.195 233.452C989.097 233.372 988.986 233.309 988.867 233.265L988.857 233.26C986.62 232.711 984.384 232.16 982.148 231.606L976.164 230.129L976.007 230.087C975.827 230.036 975.619 229.979 975.397 230.007C975.336 230.017 975.278 230.039 975.227 230.073L975.171 230.12C975.101 230.192 975.047 230.279 975.014 230.373L975 230.411V230.626L975.01 230.659C976.27 234.244 977.564 237.881 978.812 241.4C979.773 244.11 980.772 246.916 981.746 249.672C981.806 249.859 981.977 249.982 982.19 250H982.236C982.329 250.003 982.421 249.98 982.502 249.935C982.584 249.889 982.651 249.823 982.698 249.742L986.358 244.329C987.249 243.012 988.141 241.691 989.033 240.374L990.128 238.752C990.728 237.862 991.348 236.943 991.963 236.048L991.995 236.002V235.945C992.009 235.781 992.013 235.444 991.745 235.265V235.266ZM987.457 237.239C986.597 237.693 985.72 238.162 984.837 238.626L986.381 236.948C987.023 236.245 987.693 235.518 988.349 234.806L988.363 234.792C988.418 234.717 988.488 234.647 988.562 234.572C988.612 234.521 988.668 234.469 988.719 234.408C989.061 234.648 989.407 234.891 989.74 235.13C989.98 235.303 990.225 235.477 990.475 235.65C989.465 236.173 988.459 236.703 987.457 237.239ZM985.249 237.014C984.588 237.74 983.904 238.485 983.225 239.221C981.907 237.6 980.586 235.982 979.26 234.366L977.481 232.196L977.477 232.191C977.343 232.037 977.213 231.868 977.084 231.709C977.001 231.601 976.913 231.498 976.825 231.39C977.361 231.53 977.902 231.662 978.433 231.788C978.9 231.901 979.385 232.018 979.861 232.14L987.906 234.122C987.014 235.088 986.117 236.067 985.249 237.014ZM982.924 246.148C982.975 245.656 983.031 245.15 983.077 244.653C983.119 244.254 983.16 243.847 983.202 243.458C983.266 242.834 983.336 242.188 983.392 241.555L983.405 241.443C983.451 241.039 983.497 240.623 983.525 240.205C983.579 240.175 983.635 240.148 983.692 240.125C983.761 240.093 983.83 240.065 983.899 240.023C984.966 239.455 986.035 238.889 987.106 238.326C988.174 237.764 989.269 237.182 990.355 236.606C989.37 238.054 988.388 239.504 987.411 240.956C986.584 242.178 985.734 243.439 984.888 244.681C984.556 245.178 984.209 245.684 983.881 246.171C983.511 246.715 983.132 247.272 982.763 247.831C982.809 247.268 982.864 246.701 982.924 246.148ZM976.484 232.496C976.424 232.327 976.358 232.154 976.303 231.99C977.551 233.518 978.807 235.055 980.032 236.545C980.665 237.318 981.298 238.087 981.931 238.865C982.056 239.01 982.181 239.165 982.301 239.315C982.458 239.507 982.615 239.709 982.786 239.901C982.73 240.383 982.684 240.871 982.633 241.339C982.601 241.667 982.569 241.996 982.532 242.329V242.333C982.518 242.543 982.49 242.755 982.467 242.961L982.361 243.894L982.356 243.926C982.273 244.873 982.171 245.829 982.074 246.757C982.033 247.141 981.996 247.535 981.954 247.929C981.931 247.859 981.904 247.788 981.88 247.722C981.81 247.531 981.742 247.339 981.677 247.146L981.182 245.754L976.483 232.496" fill="white" fill-opacity="0.24"></path> <path d="M238.587 222.09C239.306 221.719 240.183 222.576 239.802 223.282C239.579 223.858 238.737 224.011 238.308 223.572C237.854 223.152 238.002 222.318 238.587 222.088V222.09ZM230.855 222.909C231.291 222.732 231.845 223.125 231.8 223.594C231.845 224.101 231.215 224.476 230.769 224.235C230.18 224.01 230.247 223.068 230.855 222.909ZM246.692 224.248C246.009 224.167 245.901 223.111 246.557 222.898C247.067 222.655 247.535 223.113 247.61 223.588C247.502 223.993 247.157 224.365 246.692 224.248ZM232.614 226.146C233.345 225.691 234.386 226.368 234.273 227.203C234.236 228.045 233.099 228.534 232.457 227.964C231.836 227.517 231.93 226.491 232.614 226.146ZM243.759 226.629C244.085 225.804 245.405 225.777 245.775 226.581C246.143 227.206 245.691 227.982 245.039 228.195C244.173 228.354 243.353 227.433 243.759 226.629ZM237.656 228.148C237.648 227.437 238.305 226.909 238.991 226.86C239.447 226.95 239.942 227.14 240.137 227.592C240.501 228.216 240.177 229.072 239.522 229.359C239.222 229.524 238.865 229.462 238.538 229.443C238.038 229.203 237.617 228.727 237.656 228.148ZM226.157 229.183C226.824 228.778 227.724 229.513 227.471 230.227C227.333 230.844 226.49 231.094 226.008 230.701C225.494 230.332 225.575 229.446 226.158 229.182L226.157 229.183ZM250.85 229.18C251.415 228.748 252.35 229.245 252.281 229.947C252.32 230.587 251.511 231.072 250.95 230.742C250.332 230.467 250.268 229.531 250.85 229.182V229.18ZM240.89 230.457C241.823 230.127 242.933 230.521 243.464 231.342C244.166 232.342 243.794 233.866 242.703 234.441C241.575 235.12 239.927 234.546 239.508 233.304C239.036 232.194 239.726 230.805 240.888 230.457H240.89ZM235.41 230.566C236.445 230.086 237.839 230.488 238.338 231.529C238.926 232.543 238.472 233.955 237.42 234.478C236.367 235.068 234.881 234.621 234.372 233.533C233.801 232.48 234.308 231.051 235.41 230.566ZM229.925 232.41C230.004 231.754 230.633 231.327 231.267 231.282C231.598 231.317 231.907 231.463 232.145 231.696C232.382 231.93 232.532 232.237 232.572 232.567C232.527 233.242 231.998 233.899 231.272 233.896C230.472 233.964 229.772 233.181 229.925 232.41ZM246.128 231.426C246.948 230.956 248.087 231.639 248.051 232.566C248.106 233.548 246.846 234.24 246.03 233.664C245.181 233.184 245.247 231.834 246.128 231.426ZM233.183 234.886C234.14 234.627 235.238 235.071 235.707 235.938C236.222 236.811 236.012 238.023 235.212 238.665C234.185 239.604 232.293 239.226 231.747 237.945C231.119 236.77 231.882 235.195 233.181 234.885L233.183 234.886ZM243.573 234.882C244.505 234.619 245.6 234.972 246.101 235.807C246.764 236.763 246.447 238.189 245.462 238.804C244.427 239.52 242.828 239.145 242.258 238.026C241.568 236.869 242.262 235.234 243.573 234.882ZM227.013 235.971C227.841 235.663 228.759 236.562 228.423 237.37C228.219 238.105 227.165 238.378 226.62 237.835C225.983 237.325 226.218 236.193 227.013 235.971ZM249.467 237.144C249.451 236.814 249.567 236.491 249.788 236.245C250.009 236 250.319 235.851 250.649 235.833C251.216 235.923 251.768 236.373 251.723 236.98C251.775 237.783 250.793 238.327 250.097 237.951C249.771 237.787 249.605 237.459 249.467 237.144ZM222.941 236.37C223.439 236.155 224.055 236.58 223.941 237.124C223.914 237.741 222.989 237.979 222.65 237.463C222.35 237.105 222.53 236.554 222.941 236.368V236.37ZM254.364 236.356C254.715 236.112 255.279 236.287 255.417 236.691C255.653 237.132 255.221 237.735 254.717 237.661C254.009 237.724 253.781 236.664 254.364 236.356ZM235.889 239.316C237.2 238.981 238.61 240.057 238.619 241.386C238.703 242.728 237.314 243.918 235.973 243.609C234.935 243.444 234.12 242.46 234.155 241.429C234.152 240.442 234.908 239.524 235.889 239.316ZM241.082 239.314C242.412 238.948 243.864 240.043 243.843 241.402C243.914 242.719 242.568 243.87 241.254 243.607C240.017 243.451 239.105 242.115 239.45 240.933C239.624 240.147 240.293 239.508 241.082 239.313V239.314ZM231.068 240.132C231.989 239.977 232.853 240.987 232.479 241.848C232.206 242.766 230.85 243.013 230.25 242.265C229.548 241.545 230.073 240.231 231.068 240.132ZM246.299 240.172C247.121 239.833 248.129 240.532 248.066 241.41C248.099 242.374 246.854 243.04 246.051 242.476C245.141 241.971 245.307 240.481 246.299 240.172ZM250.556 244.372C250.235 243.783 250.818 243.001 251.486 243.111C251.816 243.105 252.048 243.361 252.26 243.577C252.303 243.927 252.377 244.344 252.081 244.612C251.681 245.112 250.773 244.969 250.556 244.372ZM226.154 243.274C226.776 242.868 227.672 243.475 227.531 244.189C227.456 244.824 226.646 245.185 226.113 244.825C225.54 244.5 225.561 243.571 226.154 243.274ZM238.443 244.599C239.258 244.246 240.296 244.944 240.218 245.826C240.278 246.801 238.995 247.476 238.199 246.891C237.314 246.388 237.462 244.909 238.443 244.599ZM232.752 245.905C233.445 245.547 234.375 246.166 234.312 246.931C234.333 247.558 233.712 248.092 233.082 247.999C232.562 247.989 232.223 247.528 232.055 247.092C232.064 246.616 232.263 246.087 232.752 245.907V245.905ZM244.281 245.917C244.995 245.482 246.009 246.106 245.942 246.922C245.96 247.777 244.814 248.323 244.149 247.762C243.507 247.323 243.585 246.267 244.281 245.917ZM246.287 250.792C245.969 250.321 246.342 249.753 246.857 249.645C247.272 249.727 247.712 250.035 247.623 250.506C247.563 251.146 246.612 251.341 246.287 250.794V250.792ZM230.37 250.383C230.496 250.008 230.802 249.637 231.251 249.735C231.903 249.78 232.097 250.749 231.525 251.047C231.012 251.388 230.415 250.921 230.37 250.383ZM238.05 250.813C238.175 250.258 238.902 249.99 239.382 250.284C239.7 250.419 239.793 250.767 239.874 251.064C239.832 251.218 239.792 251.373 239.754 251.529C239.558 251.757 239.304 251.986 238.977 251.979C238.37 252.049 237.821 251.373 238.049 250.813H238.05Z" fill="white" fill-opacity="0.24"></path> <path d="M1263 238.58L1256.01 235.322V228.102L1263 225.623V238.58ZM1252.82 242L1246 238.821V225.958L1252.82 229.138V242ZM1262.83 225.157L1262.72 225.197L1256.01 227.578L1255.84 227.638L1253 228.646L1246.27 225.51L1255.84 222.114L1255.93 222.084L1256.1 222.021L1256.17 222L1262.9 225.136L1262.83 225.157H1262.83Z" fill="white" fill-opacity="0.24"></path> </svg> 